<svg id="Capa_1" data-name="Capa 1" xmlns="http://www.w3.org/2000/svg" xmlns:xlink="http://www.w3.org/1999/xlink" viewBox="0 0 708.66 708.66"><defs><style>.cls-1,.cls-4{fill:none;}.cls-2{fill:#93cb09;}.cls-3{clip-path:url(#clip-path);}.cls-4{stroke:#efca00;stroke-miterlimit:10;stroke-width:80px;}</style><clipPath id="clip-path"><rect class="cls-1" x="-1153.07" y="-3128.62" width="1960.15" height="2137.53"/></clipPath></defs><path class="cls-2" d="M632.12,210.41c-26.83-51.75-64.92-93.15-115-123.32Q414.74,25.32,296.58,46.52a255.61,255.61,0,0,0-29.94,7.13L278.2,81.76a283.67,283.67,0,0,1,177.35,8.68c140.52,53.93,202.8,199.47,175,321.87,0,0-.47,3.6-2.73,13.39a113.24,113.24,0,0,1-5.41,17.1C598.92,514,550.89,568.25,491.8,601.06c-5,3-10.22,5.68-15.62,8.26a272.94,272.94,0,0,1-36.59,14.31c-5.55,1.74-11.27,3.54-17,4.79a277.31,277.31,0,0,1-190-19.28l-.3-.12c-1.85-.76-12.09-5-19.47-9.76-3.19-2-8.58-5.69-14-9.37v0q-8.28-5.26-16.14-11.16c-.13-.1-.24-.16-.34-.23a2,2,0,0,0-.26-.19c-93.13-70-143.64-206.81-86.86-337.28A282.18,282.18,0,0,1,209.67,110.89l-11.5-28a297.91,297.91,0,0,0-77.26,62.61C63.12,211.6,36.69,288.75,42.05,376.3a292.71,292.71,0,0,0,16.16,79.21c.15.87,16.68,39.68,18.5,43.18,25,48.25,60.42,87.23,105.62,117.2a3.48,3.48,0,0,1,.33.22c.07,0,.13.1.22.15,1.18.73,2.15,1.36,2.92,1.91l.12.09c4.55,3,12.65,8.13,19.61,12,4.8,2.66,9,4.71,12.11,6.12,0,0,0-.08,0-.1q2.72,1.23,5.42,2.4l.24.1.08,0c69.79,30.23,140,37.29,210.77,17.91,5.7-1.43,11.26-3.15,16.91-5.12,7.32-2.45,14.7-5.13,22.12-8.18,4.9-2,9.74-4.19,14.34-6.44,5.46-2.44,10.71-5,15.81-7.8,69.42-36.87,117.31-94.61,146.17-170.36,0,0,2.82-8.64,5.33-16.09A145.7,145.7,0,0,0,659,425.59c.06-.39.12-.73.16-1a2.23,2.23,0,0,0,.07-.36.48.48,0,0,0,0-.12,310.84,310.84,0,0,0-1.79-147.53c-2.14-8.36-8-26.63-8.06-27.72C645.66,239.74,634.05,214.23,632.12,210.41Z"/><path class="cls-2" d="M261.36,87,249.93,59.24a35.72,35.72,0,0,0-4,1.46l-18.89,7c-4.39,2.36-8.77,4.71-13.22,6.91l11.43,27.8A252,252,0,0,1,261.36,87Z"/><g class="cls-3"><path class="cls-4" d="M-.17-2017.22c0,110.51-120,110.51-120,221s120,110.51,120,221-120,110.51-120,221,120,110.51,120,221-120,110.51-120,221,120,110.5,120,221-120,110.51-120,221,120,110.51,120,221-120,110.5-120,221,120,110.51,120,221-120,110.51-120,221"/><path class="cls-4" d="M325.78-2017.22c0,110.51-120,110.51-120,221s120,110.51,120,221-120,110.51-120,221,120,110.51,120,221-120,110.51-120,221,120,110.5,120,221-120,110.51-120,221,120,110.51,120,221-120,110.5-120,221,120,110.51,120,221-120,110.51-120,221"/></g></svg>